<?xml version="1.0" encoding="utf-8"?>
<!-- Generator: Adobe Illustrator 16.0.0, SVG Export Plug-In . SVG Version: 6.00 Build 0)  -->
<!DOCTYPE svg PUBLIC "-//W3C//DTD SVG 1.1//EN" "http://www.w3.org/Graphics/SVG/1.1/DTD/svg11.dtd">
<svg version="1.1" id="Layer_1" xmlns="http://www.w3.org/2000/svg" xmlns:xlink="http://www.w3.org/1999/xlink" x="0px" y="0px"
	 width="1027.541px" height="930.68px" viewBox="0 0 1027.541 930.68" enable-background="new 0 0 1027.541 930.68"
	 xml:space="preserve">
<g>
	<polygon fill="#2A315E" points="456.727,0 448.776,0 0,0 0,114.571 448.776,114.571 456.727,114.571 968.352,114.571 968.352,0 	
		"/>
	<polygon fill="#2A315E" points="456.727,752.716 448.776,752.716 0,752.716 0,867.287 448.776,867.287 456.727,867.287 
		968.352,867.287 968.352,752.716 	"/>
	<g>
		<path fill="#2A315E" d="M265.659,193.896c28.045,2.288,53.692,8.505,76.951,18.7c23.22,10.214,42.188,26.108,56.942,47.633
			c14.736,21.52,22.114,51.307,22.114,89.258c0,11.902-1.706,22.245-5.097,31.033c-3.415,8.781-7.805,16.58-13.171,23.376
			c-5.407,6.796-11.358,12.61-17.859,17.4c-6.533,4.845-12.912,8.929-19.133,12.347c7.361,5.107,14.318,10.214,20.822,15.315
			c6.521,5.113,12.324,10.927,17.41,17.4c5.145,6.555,9.243,13.915,12.358,22.118c3.102,8.229,4.669,17.999,4.669,29.324
			c0,38.583-7.378,68.465-22.114,89.708c-14.754,21.243-33.722,36.987-56.942,47.202c-23.259,10.174-48.906,16.412-76.951,18.68
			c-28.045,2.281-55.112,3.398-81.183,3.398H0V574.767h168.327c13.605,0,28.321-0.276,44.208-0.854
			c15.846-0.538,30.73-2.247,44.639-5.087c13.86-2.819,25.326-7.072,34.424-12.751c9.044-5.665,13.586-13.6,13.586-23.794
			c0-9.634-3.103-17.139-9.333-22.54c-6.257-5.384-15.3-9.488-27.211-12.348c-11.902-2.806-26.101-4.515-42.505-5.093
			c-16.461-0.533-34.854-0.829-55.27-0.829H89.243V375.836h79.084c20.957,0,39.795-0.275,56.529-0.854
			c16.721-0.558,31.037-2.133,42.929-4.676c11.921-2.543,21.103-6.648,27.628-12.327c6.501-5.652,9.771-13.316,9.771-22.938
			c0-10.214-4.542-18.12-13.586-23.799c-9.098-5.667-20.563-9.939-34.424-12.758c-13.909-2.846-28.793-4.535-44.639-5.107
			c-15.887-0.538-30.603-0.854-44.208-0.854H0V190.52h184.476C210.547,190.52,237.614,191.669,265.659,193.896z"/>
		<path fill="#2A315E" d="M478.612,190.52h246.546c26.073,0,53.138,5.665,81.177,16.989c28.068,11.346,53.702,26.646,76.943,45.905
			c23.237,19.271,42.803,41.799,58.679,67.59c15.863,25.812,24.919,53.144,27.201,82.038v61.225
			c-2.282,28.893-11.338,56.239-27.201,82.038c-15.876,25.791-35.441,48.313-58.679,67.57
			c-23.241,19.291-48.875,34.572-76.943,45.923c-28.039,11.325-55.104,16.991-81.177,16.991h-86.713V574.767h85.007
			c13.593,0,27.919-4.084,42.944-12.327c15.012-8.209,28.762-18.847,41.239-31.868c12.44-13.032,22.933-27.499,31.445-43.354
			c8.515-15.88,13.325-31.457,14.447-46.778v-13.591c-1.122-15.301-5.933-30.899-14.447-46.779
			c-8.513-15.839-19.005-30.299-31.445-43.34c-12.478-13.013-26.228-23.652-41.239-31.881
			c-15.025-8.209-29.352-12.327-42.944-12.327H594.246v384.268H478.612V190.52z"/>
	</g>
	<polygon fill="#3346A0" points="476.455,21.129 468.509,21.129 19.729,21.129 19.729,135.706 468.509,135.706 476.455,135.706 
		988.079,135.706 988.079,21.129 	"/>
	<polygon fill="#3346A0" points="476.455,773.852 468.509,773.852 19.729,773.852 19.729,888.417 468.509,888.417 476.455,888.417 
		988.079,888.417 988.079,773.852 	"/>
	<g>
		<path fill="#3346A0" d="M285.388,215.025c28.05,2.288,53.692,8.505,76.951,18.699c23.221,10.221,42.189,26.115,56.942,47.633
			c14.736,21.518,22.117,51.307,22.117,89.264c0,11.903-1.712,22.245-5.1,31.027c-3.416,8.781-7.805,16.586-13.172,23.382
			c-5.406,6.796-11.358,12.603-17.854,17.394c-6.534,4.844-12.917,8.935-19.137,12.347c7.364,5.113,14.319,10.214,20.826,15.321
			c6.52,5.107,12.32,10.921,17.41,17.4c5.145,6.555,9.235,13.909,12.354,22.118c3.102,8.222,4.673,17.993,4.673,29.316
			c0,38.591-7.381,68.465-22.117,89.708c-14.753,21.243-33.722,36.989-56.942,47.204c-23.259,10.172-48.901,16.418-76.951,18.678
			c-28.048,2.289-55.111,3.397-81.183,3.397H19.729V595.902h168.328c13.605,0,28.321-0.284,44.205-0.854
			c15.85-0.538,30.734-2.247,44.643-5.087c13.862-2.827,25.327-7.078,34.428-12.759c9.04-5.665,13.582-13.592,13.582-23.786
			c0-9.635-3.103-17.139-9.33-22.548c-6.261-5.384-15.305-9.488-27.215-12.349c-11.902-2.798-26.101-4.507-42.505-5.087
			c-16.459-0.53-34.855-0.832-55.27-0.832h-81.621V396.972h79.084c20.96,0,39.793-0.283,56.529-0.854
			c16.721-0.558,31.036-2.133,42.929-4.683c11.923-2.543,21.105-6.648,27.632-12.328c6.496-5.645,9.767-13.316,9.767-22.931
			c0-10.214-4.542-18.128-13.582-23.807c-9.101-5.666-20.566-9.932-34.428-12.758c-13.909-2.839-28.793-4.534-44.643-5.106
			c-15.883-0.539-30.599-0.854-44.205-0.854H19.729V211.647h184.477C230.276,211.647,257.339,212.805,285.388,215.025z"/>
		<path fill="#3346A0" d="M498.338,211.647h246.554c26.07,0,53.132,5.666,81.175,16.99c28.069,11.352,53.704,26.652,76.938,45.904
			c23.242,19.278,42.805,41.799,58.68,67.598c15.868,25.805,24.923,53.144,27.203,82.038v61.219
			c-2.28,28.894-11.335,56.245-27.203,82.037c-15.875,25.791-35.438,48.32-58.68,67.57c-23.233,19.298-48.868,34.579-76.938,45.931
			c-28.043,11.325-55.104,16.982-81.175,16.982h-86.719V595.902h85.009c13.595,0,27.917-4.084,42.94-12.328
			c15.015-8.209,28.764-18.854,41.244-31.867c12.441-13.033,22.932-27.5,31.446-43.359c8.515-15.882,13.319-31.458,14.447-46.773
			v-13.599c-1.128-15.294-5.933-30.898-14.447-46.772c-8.515-15.839-19.005-30.307-31.446-43.34
			c-12.48-13.021-26.229-23.659-41.244-31.881c-15.023-8.208-29.346-12.333-42.94-12.333H613.979v384.266H498.338V211.647z"/>
	</g>
	<polygon fill="#1C75BC" points="496.184,42.263 488.238,42.263 39.461,42.263 39.461,156.835 488.238,156.835 496.184,156.835 
		1007.808,156.835 1007.808,42.263 	"/>
	<polygon fill="#1C75BC" points="496.184,794.98 488.238,794.98 39.461,794.98 39.461,909.552 488.238,909.552 496.184,909.552 
		1007.808,909.552 1007.808,794.98 	"/>
	<g>
		<path fill="#1C75BC" d="M305.117,236.161c28.052,2.288,53.696,8.505,76.95,18.699c23.225,10.214,42.19,26.108,56.946,47.626
			c14.729,21.525,22.114,51.314,22.114,89.264c0,11.903-1.709,22.246-5.1,31.034c-3.416,8.781-7.806,16.579-13.171,23.375
			c-5.404,6.796-11.355,12.609-17.855,17.401c-6.538,4.845-12.917,8.929-19.133,12.347c7.36,5.107,14.315,10.215,20.822,15.322
			c6.52,5.106,12.323,10.913,17.41,17.393c5.144,6.562,9.235,13.909,12.357,22.118c3.099,8.229,4.67,18,4.67,29.323
			c0,38.583-7.385,68.466-22.114,89.709c-14.756,21.235-33.721,36.989-56.946,47.203c-23.254,10.173-48.898,16.411-76.95,18.678
			c-28.046,2.289-55.112,3.398-81.183,3.398H39.461V617.03h168.328c13.601,0,28.317-0.276,44.204-0.854
			c15.85-0.531,30.73-2.24,44.639-5.088c13.861-2.819,25.327-7.07,34.424-12.758c9.047-5.657,13.586-13.585,13.586-23.784
			c0-9.637-3.103-17.139-9.333-22.543c-6.255-5.383-15.298-9.487-27.211-12.348c-11.903-2.806-26.098-4.515-42.505-5.087
			c-16.459-0.538-34.852-0.833-55.271-0.833h-81.62V418.101h79.088c20.956,0,39.793-0.276,56.525-0.854
			c16.721-0.559,31.04-2.133,42.929-4.676c11.923-2.544,21.105-6.648,27.632-12.334c6.5-5.639,9.767-13.31,9.767-22.931
			c0-10.214-4.539-18.122-13.586-23.807c-9.097-5.665-20.563-9.932-34.424-12.751c-13.908-2.845-28.789-4.534-44.639-5.106
			c-15.887-0.539-30.603-0.855-44.204-0.855H39.461V232.782h184.473C250.004,232.782,277.071,233.934,305.117,236.161z"/>
		<path fill="#1C75BC" d="M518.066,232.782h246.553c26.07,0,53.138,5.667,81.178,16.991c28.064,11.344,53.701,26.646,76.939,45.904
			c23.241,19.271,42.803,41.799,58.679,67.59c15.867,25.813,24.919,53.145,27.205,82.038v61.226
			c-2.286,28.895-11.338,56.245-27.205,82.038c-15.876,25.79-35.438,48.313-58.679,67.57c-23.238,19.29-48.875,34.571-76.939,45.924
			c-28.04,11.324-55.107,16.989-81.178,16.989h-86.715V617.03h85.01c13.589,0,27.918-4.085,42.939-12.326
			c15.013-8.209,28.763-18.848,41.24-31.867c12.441-13.035,22.933-27.502,31.447-43.361c8.512-15.874,13.323-31.45,14.446-46.772
			v-13.592c-1.123-15.302-5.935-30.898-14.446-46.778c-8.515-15.839-19.006-30.3-31.447-43.341
			c-12.478-13.013-26.228-23.658-41.24-31.88c-15.021-8.209-29.351-12.327-42.939-12.327H633.707v384.267H518.066V232.782z"/>
	</g>
	<polygon fill="#27AAE1" points="515.917,63.392 507.967,63.392 59.189,63.392 59.189,177.963 507.967,177.963 515.917,177.963 
		1027.541,177.963 1027.541,63.392 	"/>
	<polygon fill="#27AAE1" points="515.917,816.114 507.967,816.114 59.189,816.114 59.189,930.68 507.967,930.68 515.917,930.68 
		1027.541,930.68 1027.541,816.114 	"/>
	<g>
		<path fill="#27AAE1" d="M324.849,257.295c28.049,2.281,53.689,8.499,76.947,18.692c23.221,10.214,42.193,26.108,56.946,47.634
			c14.732,21.519,22.114,51.306,22.114,89.264c0,11.903-1.709,22.246-5.098,31.027c-3.418,8.781-7.809,16.586-13.175,23.382
			c-5.403,6.789-11.354,12.604-17.854,17.396c-6.537,4.844-12.913,8.935-19.133,12.346c7.361,5.107,14.315,10.215,20.822,15.322
			c6.517,5.106,12.324,10.92,17.411,17.4c5.141,6.554,9.238,13.908,12.357,22.11c3.103,8.23,4.67,18,4.67,29.325
			c0,38.589-7.382,68.465-22.114,89.709c-14.753,21.241-33.725,36.987-56.946,47.201c-23.258,10.175-48.898,16.412-76.947,18.68
			c-28.049,2.287-55.112,3.398-81.187,3.398H59.189V638.165h168.331c13.599,0,28.314-0.276,44.202-0.854
			c15.846-0.538,30.73-2.247,44.638-5.093c13.861-2.819,25.328-7.072,34.429-12.752c9.043-5.665,13.581-13.593,13.581-23.785
			c0-9.636-3.098-17.139-9.329-22.55c-6.258-5.382-15.298-9.486-27.215-12.346c-11.903-2.808-26.098-4.509-42.502-5.088
			c-16.462-0.537-34.855-0.834-55.271-0.834H148.43V439.235h79.09c20.954,0,39.794-0.282,56.521-0.854
			c16.722-0.559,31.04-2.14,42.934-4.684c11.92-2.536,21.105-6.648,27.631-12.327c6.497-5.646,9.763-13.316,9.763-22.931
			c0-10.215-4.538-18.122-13.581-23.807c-9.101-5.665-20.567-9.932-34.429-12.758c-13.908-2.84-28.792-4.528-44.638-5.107
			c-15.887-0.538-30.603-0.854-44.202-0.854H59.189V253.911h184.473C269.737,253.911,296.8,255.069,324.849,257.295z"/>
		<path fill="#27AAE1" d="M537.8,253.911h246.549c26.074,0,53.137,5.666,81.176,16.99c28.065,11.352,53.702,26.647,76.941,45.904
			c23.239,19.278,42.805,41.799,58.677,67.591c15.867,25.811,24.922,53.151,27.205,82.043v61.219
			c-2.283,28.895-11.338,56.247-27.205,82.038c-15.872,25.792-35.438,48.319-58.677,67.577
			c-23.239,19.291-48.876,34.572-76.941,45.917c-28.039,11.325-55.102,16.991-81.176,16.991h-86.718V638.165h85.011
			c13.591,0,27.919-4.084,42.94-12.333c15.016-8.203,28.766-18.848,41.243-31.86c12.443-13.042,22.933-27.501,31.449-43.361
			c8.511-15.874,13.319-31.457,14.443-46.771v-13.593c-1.124-15.301-5.933-30.905-14.443-46.778
			c-8.517-15.839-19.006-30.307-31.449-43.341c-12.478-13.02-26.228-23.658-41.243-31.88c-15.021-8.21-29.35-12.334-42.94-12.334
			H653.436v384.269H537.8V253.911z"/>
	</g>
</g>
</svg>
